# Exported from Wings 3D 1.4.1
mtllib harrier_g2_ThrottleLever.mtl
o g2_ThrottleLever
#49 vertices, 48 faces
v -2.93928653 -0.21099542 0.25148621
v -2.93838653 -0.21087542 0.25280221
v -2.93808653 -0.21073542 0.25435821
v -2.93838653 -0.21056542 0.25592221
v -2.93928653 -0.21038542 0.25725421
v -2.94058653 -0.21025542 0.25815021
v -2.94208653 -0.21016542 0.25847521
v -2.94368653 -0.21015542 0.25817921
v -2.94508653 -0.21018542 0.25730721
v -2.94598653 -0.21029542 0.25599321
v -2.94628653 -0.21044542 0.25443521
v -2.94598653 -0.21061542 0.25287121
v -2.94508653 -0.21078542 0.25154121
v -2.94388653 -0.21091542 0.25064321
v -2.94228653 -0.21099542 0.25032021
v -2.94058653 -0.21103542 0.25061521
v -2.93198653 -0.21202542 0.24394621
v -2.92868653 -0.21163542 0.24866521
v -2.92748653 -0.21111542 0.25425521
v -2.92858653 -0.21049542 0.25986621
v -2.93168653 -0.20990542 0.26464221
v -2.93638653 -0.20940542 0.26785921
v -2.94188653 -0.20909542 0.26902521
v -2.94768653 -0.20901542 0.26796321
v -2.95248653 -0.20916542 0.26483421
v -2.95578653 -0.20953542 0.26011621
v -2.95688653 -0.21006542 0.25452621
v -2.95578653 -0.21068542 0.24891621
v -2.95268653 -0.21128542 0.24413921
v -2.94798653 -0.21178542 0.24092321
v -2.94238653 -0.21208542 0.23975621
v -2.93668653 -0.21216542 0.24081921
v -2.92628653 -0.14330542 0.24163421
v -2.92958653 -0.14368542 0.23691721
v -2.92518653 -0.14277542 0.24722421
v -2.92618653 -0.14216542 0.25283521
v -2.92928653 -0.14156542 0.25761321
v -2.93408653 -0.14106542 0.26082921
v -2.93968653 -0.14075542 0.26199421
v -2.94528653 -0.14068542 0.26093221
v -2.95008653 -0.14083542 0.25780321
v -2.95338653 -0.14120542 0.25308621
v -2.95448653 -0.14174542 0.24749621
v -2.95348653 -0.14235542 0.24188521
v -2.95038653 -0.14295542 0.23710721
v -2.94558653 -0.14344542 0.23389121
v -2.93998653 -0.14376542 0.23272521
v -2.93438653 -0.14383542 0.23378821
v -2.93988653 -0.14225542 0.24736021
vt 0.0000000e+0 0.0000000e+0
vn -3.4312654e-2 -0.99408032 0.10308716
vn -3.3446364e-2 -0.99415417 0.10265876
vn -3.4786082e-2 -0.99428046 0.10097671
vn -3.4818944e-2 -0.99412265 0.10250751
vn -3.5031842e-2 -0.99418306 0.10184698
vn -3.4996161e-2 -0.99420646 0.10163064
vn -3.2990905e-2 -0.99422985 0.10207161
vn -3.3396147e-2 -0.99429010 0.10135035
vn -3.4714214e-2 -0.99423765 0.10142202
vn -3.4061642e-2 -0.99421115 0.10190192
vn -3.4593030e-2 -0.99417806 0.10204563
vn -3.4530695e-2 -0.99410908 0.10273641
vn -3.4412958e-2 -0.99409905 0.10287284
vn -3.2790880e-2 -0.99416444 0.10277072
vn -3.3037925e-2 -0.99421270 0.10222329
vn -3.5838724e-2 -0.99424174 0.10098980
vn 0.46394343 -0.77762906 -0.42432244
vn 0.61837915 -0.76027368 -0.19897528
vn 0.67537432 -0.73431430 6.8205829e-2
vn 0.62567393 -0.70553911 0.33278627
vn 0.47653514 -0.67750660 0.56026696
vn 0.25132322 -0.65343760 0.71404198
vn -1.3258653e-2 -0.63855584 0.76946127
vn -0.28327559 -0.63488857 0.71879861
vn -0.51198725 -0.64133811 0.57144946
vn -0.66802645 -0.66060145 0.34255859
vn -0.72497913 -0.68482320 7.3637295e-2
vn -0.67498365 -0.71396436 -0.18615038
vn -0.52596600 -0.74302474 -0.41385263
vn -0.29913414 -0.76654564 -0.56826627
vn -3.2690998e-2 -0.78112694 -0.62351584
vn 0.23559147 -0.78513559 -0.57276415
vn 0.66688911 0.66020377 -0.34552844
vn 0.51277337 0.64116897 -0.57093416
vn 0.72442173 0.68511929 -7.6319905e-2
vn 0.67502790 0.71379906 0.18662324
vn 0.52617541 0.74271764 0.41413758
vn 0.30061010 0.76621077 0.56793893
vn 3.3706032e-2 0.78117633 0.62339990
vn -0.23531778 0.78501985 0.57303523
vn -0.46220009 0.77762390 0.42623015
vn -0.61882188 0.76058963 0.19637440
vn -0.67595340 0.73340212 -7.2168779e-2
vn -0.62628986 0.70506979 -0.33262230
vn -0.47736482 0.67682930 -0.56037927
vn -0.25106746 0.65318138 -0.71436630
vn 1.4930372e-2 0.63826974 -0.76966800
vn 0.28524830 0.63474963 -0.71814087
vn 3.3916423e-2 0.99418148 -0.10223923
g g2_ThrottleLever_acmat_7
usemtl acmat_7
s 1
f 1/1/1 17/1/17 18/1/18 2/1/2
f 2/1/2 18/1/18 19/1/19 3/1/3
f 3/1/3 19/1/19 20/1/20 4/1/4
f 4/1/4 20/1/20 21/1/21 5/1/5
f 5/1/5 21/1/21 22/1/22 6/1/6
f 6/1/6 22/1/22 23/1/23 7/1/7
f 7/1/7 23/1/23 24/1/24 8/1/8
f 8/1/8 24/1/24 25/1/25 9/1/9
f 9/1/9 25/1/25 26/1/26 10/1/10
f 10/1/10 26/1/26 27/1/27 11/1/11
f 11/1/11 27/1/27 28/1/28 12/1/12
f 12/1/12 28/1/28 29/1/29 13/1/13
f 13/1/13 29/1/29 30/1/30 14/1/14
f 14/1/14 30/1/30 31/1/31 15/1/15
f 15/1/15 31/1/31 32/1/32 16/1/16
f 16/1/16 32/1/32 17/1/17 1/1/1
f 17/1/17 34/1/34 33/1/33 18/1/18
f 18/1/18 33/1/33 35/1/35 19/1/19
f 19/1/19 35/1/35 36/1/36 20/1/20
f 20/1/20 36/1/36 37/1/37 21/1/21
f 21/1/21 37/1/37 38/1/38 22/1/22
f 22/1/22 38/1/38 39/1/39 23/1/23
f 23/1/23 39/1/39 40/1/40 24/1/24
f 24/1/24 40/1/40 41/1/41 25/1/25
f 25/1/25 41/1/41 42/1/42 26/1/26
f 26/1/26 42/1/42 43/1/43 27/1/27
f 27/1/27 43/1/43 44/1/44 28/1/28
f 28/1/28 44/1/44 45/1/45 29/1/29
f 29/1/29 45/1/45 46/1/46 30/1/30
f 30/1/30 46/1/46 47/1/47 31/1/31
f 31/1/31 47/1/47 48/1/48 32/1/32
f 32/1/32 48/1/48 34/1/34 17/1/17
f 33/1/33 49/1/49 35/1/35
f 34/1/34 49/1/49 33/1/33
f 35/1/35 49/1/49 36/1/36
f 36/1/36 49/1/49 37/1/37
f 37/1/37 49/1/49 38/1/38
f 38/1/38 49/1/49 39/1/39
f 39/1/39 49/1/49 40/1/40
f 40/1/40 49/1/49 41/1/41
f 41/1/41 49/1/49 42/1/42
f 42/1/42 49/1/49 43/1/43
f 43/1/43 49/1/49 44/1/44
f 44/1/44 49/1/49 45/1/45
f 45/1/45 49/1/49 46/1/46
f 46/1/46 49/1/49 47/1/47
f 47/1/47 49/1/49 48/1/48
f 48/1/48 49/1/49 34/1/34
