# Exported from Wings 3D 1.4.1
mtllib harrier_g5_LPedal.mtl
o g5_LPedal
#20 vertices, 18 faces
v -3.36108653 -0.30852542 7.2456208e-2
v -3.36108653 -0.30852542 0.10483721
v -3.41098653 -0.26979542 0.10928521
v -3.41098653 -0.26979542 6.8007208e-2
v -3.34438653 -0.32125542 7.2456208e-2
v -3.34438653 -0.32125542 0.10483721
v -3.36108653 -0.30852542 4.4772208e-2
v -3.34438653 -0.32125542 4.4772208e-2
v -3.36108653 -0.30852542 0.13336521
v -3.34438653 -0.32125542 0.13336521
v -3.34988653 -0.32837542 0.13336521
v -3.36658653 -0.31564542 0.13336521
v -3.34988653 -0.32837542 4.4772208e-2
v -3.36658653 -0.31564542 4.4772208e-2
v -3.34988653 -0.32837542 0.10483721
v -3.34988653 -0.32837542 7.2456208e-2
v -3.41648653 -0.27691542 6.8007208e-2
v -3.41648653 -0.27691542 0.10928521
v -3.36658653 -0.31564542 0.10483721
v -3.36658653 -0.31564542 7.2456208e-2
vt -1.33414000 0.29450300
vt -1.33414000 1.29450000
vt -0.33413600 0.29450300
vt -0.33413600 1.29450000
vn 0.33041622 0.89406821 -0.30243538
vn 0.33041196 0.89406982 0.30243527
vn -7.2586915e-2 0.80388144 0.59034377
vn -7.2579953e-2 0.80388017 -0.59034635
vn 0.99144767 0.13050489 0.0000000e+0
vn 0.99144767 0.13050489 0.0000000e+0
vn -0.10667022 0.81037532 -0.57611918
vn 0.80864361 0.10644227 -0.57858928
vn -0.10667022 0.81037532 0.57611918
vn 0.80864361 0.10644227 0.57858928
vn 0.10667022 -0.81037532 0.57611918
vn -0.80864361 -0.10644227 0.57858928
vn 0.10667022 -0.81037532 -0.57611918
vn -0.80864361 -0.10644227 -0.57858928
vn 0.13050489 -0.99144767 0.0000000e+0
vn 0.13050489 -0.99144767 0.0000000e+0
vn -0.79711000 -0.13095105 -0.58946372
vn -0.79711296 -0.13094465 0.58946113
vn -0.77797590 -0.55041423 0.30298129
vn -0.77797324 -0.55041794 -0.30298139
g g5_LPedal_acmat_10
usemtl acmat_10
s 1
f 1/2/1 4/1/4 3/3/3 2/4/2
f 1/1/1 20/3/20 17/4/17 4/2/4
f 2/1/2 6/3/6 5/4/5 1/2/1
f 2/1/2 9/3/9 10/4/10 6/2/6
f 2/1/2 19/3/19 12/4/12 9/2/9
f 3/1/3 18/3/18 19/4/19 2/2/2
f 4/1/4 17/3/17 18/4/18 3/2/3
f 5/1/5 8/3/8 7/4/7 1/2/1
f 5/1/5 16/3/16 13/4/13 8/2/8
f 6/1/6 15/3/15 16/4/16 5/2/5
f 7/1/7 14/3/14 20/4/20 1/2/1
f 8/1/8 13/3/13 14/4/14 7/2/7
f 9/1/9 12/3/12 11/4/11 10/2/10
f 10/1/10 11/3/11 15/4/15 6/2/6
f 12/2/12 19/1/19 15/3/15 11/4/11
f 13/2/13 16/1/16 20/3/20 14/4/14
f 15/2/15 19/1/19 20/3/20 16/4/16
f 17/1/17 20/3/20 19/4/19 18/2/18
