# Exported from Wings 3D 1.4.1
mtllib harrier_g4_Stick.mtl
o g4_Stick
#195 vertices, 217 faces
v -3.10438653 -4.4135417e-2 -7.7654792e-2
v -3.10318653 -4.4715417e-2 -7.5686792e-2
v -3.10278653 -4.4915417e-2 -7.3366792e-2
v -3.10318653 -4.4715417e-2 -7.1045792e-2
v -3.10438653 -4.4135417e-2 -6.9078792e-2
v -3.10608653 -4.3255417e-2 -6.7763792e-2
v -3.10818653 -4.2225417e-2 -6.7301792e-2
v -3.11028653 -4.1205417e-2 -6.7763792e-2
v -3.11198653 -4.0325417e-2 -6.9078792e-2
v -3.11318653 -3.9745417e-2 -7.1045792e-2
v -3.11358653 -3.9545417e-2 -7.3366792e-2
v -3.11318653 -3.9745417e-2 -7.5686792e-2
v -3.11198653 -4.0325417e-2 -7.7654792e-2
v -3.11028653 -4.1205417e-2 -7.8968792e-2
v -3.10818653 -4.2225417e-2 -7.9430792e-2
v -3.10608653 -4.3255417e-2 -7.8968792e-2
v -3.10248653 -4.0465417e-2 -7.7654792e-2
v -3.10138653 -4.1045417e-2 -7.5686792e-2
v -3.10098653 -4.1255417e-2 -7.3366792e-2
v -3.10138653 -4.1045417e-2 -7.1045792e-2
v -3.10248653 -4.0465417e-2 -6.9078792e-2
v -3.10428653 -3.9595417e-2 -6.7763792e-2
v -3.10638653 -3.8565417e-2 -6.7301792e-2
v -3.10848653 -3.7535417e-2 -6.7763792e-2
v -3.11018653 -3.6665417e-2 -6.9078792e-2
v -3.11138653 -3.6075417e-2 -7.1045792e-2
v -3.11178653 -3.5875417e-2 -7.3366792e-2
v -3.11138653 -3.6075417e-2 -7.5686792e-2
v -3.11018653 -3.6665417e-2 -7.7654792e-2
v -3.10848653 -3.7535417e-2 -7.8968792e-2
v -3.10638653 -3.8565417e-2 -7.9430792e-2
v -3.10428653 -3.9595417e-2 -7.8968792e-2
v -3.10818653 -4.2225417e-2 -7.3366792e-2
v -3.10638653 -3.8565417e-2 -7.3366792e-2
v -3.09978653 -4.6695417e-2 -6.1486792e-2
v -3.09898653 -4.7075417e-2 -6.0189792e-2
v -3.09868653 -4.7215417e-2 -5.8659792e-2
v -3.09898653 -4.7075417e-2 -5.7130792e-2
v -3.09978653 -4.6695417e-2 -5.5833792e-2
v -3.10098653 -4.6125417e-2 -5.4966792e-2
v -3.10228653 -4.5445417e-2 -5.4662792e-2
v -3.10368653 -4.4765417e-2 -5.4966792e-2
v -3.10488653 -4.4185417e-2 -5.5833792e-2
v -3.10558653 -4.3805417e-2 -5.7130792e-2
v -3.10588653 -4.3665417e-2 -5.8659792e-2
v -3.10558653 -4.3805417e-2 -6.0189792e-2
v -3.10488653 -4.4185417e-2 -6.1486792e-2
v -3.10368653 -4.4765417e-2 -6.2353792e-2
v -3.10228653 -4.5445417e-2 -6.2657792e-2
v -3.10098653 -4.6125417e-2 -6.2353792e-2
v -3.09858653 -4.4275417e-2 -6.1486792e-2
v -3.09778653 -4.4665417e-2 -6.0189792e-2
v -3.09748653 -4.4795417e-2 -5.8659792e-2
v -3.09778653 -4.4665417e-2 -5.7130792e-2
v -3.09858653 -4.4275417e-2 -5.5833792e-2
v -3.09978653 -4.3705417e-2 -5.4966792e-2
v -3.10108653 -4.3025417e-2 -5.4662792e-2
v -3.10248653 -4.2345417e-2 -5.4966792e-2
v -3.10368653 -4.1775417e-2 -5.5833792e-2
v -3.10438653 -4.1385417e-2 -5.7130792e-2
v -3.10468653 -4.1255417e-2 -5.8659792e-2
v -3.10438653 -4.1385417e-2 -6.0189792e-2
v -3.10368653 -4.1775417e-2 -6.1486792e-2
v -3.10248653 -4.2345417e-2 -6.2353792e-2
v -3.10108653 -4.3025417e-2 -6.2657792e-2
v -3.09978653 -4.3705417e-2 -6.2353792e-2
v -3.10228653 -4.5445417e-2 -5.8659792e-2
v -3.10108653 -4.3025417e-2 -5.8659792e-2
v -3.11318653 -2.6545417e-2 -6.5551792e-2
v -3.11838653 -3.7135417e-2 -6.5551792e-2
v -3.11838653 -3.7135417e-2 -8.0643792e-2
v -3.11318653 -2.6545417e-2 -8.0643792e-2
v -3.09348653 -4.7675417e-2 -7.7715792e-2
v -3.09188653 -4.8115417e-2 -7.3069792e-2
v -3.09338653 -4.7685417e-2 -6.8419792e-2
v -3.09778653 -4.7125417e-2 -6.5542792e-2
v -3.09788653 -4.7125417e-2 -8.0584792e-2
v -3.09638653 -4.4125417e-2 -6.5542792e-2
v -3.09638653 -4.4125417e-2 -8.0584792e-2
v -3.09638653 -4.4125417e-2 -7.3063792e-2
v -3.09478653 -4.5585417e-2 -7.5389792e-2
v -3.09478653 -4.5585417e-2 -7.0741792e-2
v -3.09508653 -0.13576542 -8.6537792e-2
v -3.10038653 -0.13576542 -8.7593792e-2
v -3.10568653 -0.13576542 -8.6537792e-2
v -3.11018653 -0.13576542 -8.3531792e-2
v -3.11318653 -0.13576542 -7.9030792e-2
v -3.11428653 -0.13576542 -7.3722792e-2
v -3.11318653 -0.13576542 -6.8416792e-2
v -3.11018653 -0.13576542 -6.3915792e-2
v -3.10568653 -0.13576542 -6.0909792e-2
v -3.10038653 -0.13576542 -5.9853792e-2
v -3.09508653 -0.13576542 -6.0909792e-2
v -3.09058653 -0.13576542 -6.3915792e-2
v -3.08758653 -0.13576542 -6.8414792e-2
v -3.08648653 -0.13576542 -7.3722792e-2
v -3.08758653 -0.13576542 -7.9030792e-2
v -3.09058653 -0.13576542 -8.3531792e-2
v -3.08918653 -0.13220542 -8.4952792e-2
v -3.08568653 -0.13220542 -7.9801792e-2
v -3.08448653 -0.13220542 -7.3722792e-2
v -3.08568653 -0.13220542 -6.7645792e-2
v -3.08918653 -0.13220542 -6.2494792e-2
v -3.09428653 -0.13220542 -5.9051792e-2
v -3.10038653 -0.13220542 -5.7842792e-2
v -3.10648653 -0.13220542 -5.9051792e-2
v -3.11158653 -0.13220542 -6.2494792e-2
v -3.11508653 -0.13220542 -6.7645792e-2
v -3.11628653 -0.13220542 -7.3722792e-2
v -3.11508653 -0.13220542 -7.9801792e-2
v -3.11158653 -0.13220542 -8.4952792e-2
v -3.10648653 -0.13220542 -8.8394792e-2
v -3.10038653 -0.13220542 -8.9604792e-2
v -3.09428653 -0.13220542 -8.8394792e-2
v -3.09428653 -0.12841542 -8.8394792e-2
v -3.10038653 -0.12841542 -8.9604792e-2
v -3.10648653 -0.12841542 -8.8394792e-2
v -3.11158653 -0.12841542 -8.4952792e-2
v -3.11508653 -0.12841542 -7.9801792e-2
v -3.11628653 -0.12841542 -7.3722792e-2
v -3.11508653 -0.12841542 -6.7645792e-2
v -3.11158653 -0.12841542 -6.2494792e-2
v -3.10648653 -0.12841542 -5.9051792e-2
v -3.10038653 -0.12841542 -5.7842792e-2
v -3.09428653 -0.12841542 -5.9051792e-2
v -3.08918653 -0.12841542 -6.2494792e-2
v -3.08568653 -0.12841542 -6.7645792e-2
v -3.08448653 -0.12841542 -7.3722792e-2
v -3.08568653 -0.12841542 -7.9801792e-2
v -3.08918653 -0.12841542 -8.4952792e-2
v -3.09128653 -0.12454542 -8.2865792e-2
v -3.08848653 -0.12454542 -7.8671792e-2
v -3.08748653 -0.12454542 -7.3722792e-2
v -3.08848653 -0.12454542 -6.8775792e-2
v -3.09128653 -0.12454542 -6.4580792e-2
v -3.09548653 -0.12454542 -6.1777792e-2
v -3.10038653 -0.12454542 -6.0794792e-2
v -3.10538653 -0.12454542 -6.1777792e-2
v -3.10958653 -0.12454542 -6.4580792e-2
v -3.11238653 -0.12454542 -6.8775792e-2
v -3.11328653 -0.12454542 -7.3722792e-2
v -3.11238653 -0.12454542 -7.8671792e-2
v -3.10958653 -0.12454542 -8.2865792e-2
v -3.10538653 -0.12454542 -8.5668792e-2
v -3.10038653 -0.12454542 -8.6652792e-2
v -3.09548653 -0.12454542 -8.5668792e-2
v -3.09588653 -0.10016542 -8.4502792e-2
v -3.10038653 -0.10016542 -8.5390792e-2
v -3.10488653 -0.10016542 -8.4502792e-2
v -3.10868653 -0.10016542 -8.1973792e-2
v -3.11118653 -0.10016542 -7.8188792e-2
v -3.11208653 -0.10016542 -7.3721792e-2
v -3.11118653 -0.10016542 -6.9256792e-2
v -3.10868653 -0.10016542 -6.5471792e-2
v -3.10488653 -0.10016542 -6.2942792e-2
v -3.10038653 -0.10016542 -6.2054792e-2
v -3.09588653 -0.10016542 -6.2942792e-2
v -3.09218653 -0.10016542 -6.5471792e-2
v -3.08958653 -0.10016542 -6.9256792e-2
v -3.08868653 -0.10016542 -7.3721792e-2
v -3.08958653 -0.10016542 -7.8188792e-2
v -3.09218653 -0.10016542 -8.1973792e-2
v -3.09538653 -5.1815417e-2 -7.7104792e-2
v -3.09288653 -5.1815417e-2 -7.3318792e-2
v -3.09198653 -5.1815417e-2 -6.8853792e-2
v -3.09288653 -5.1815417e-2 -6.4387792e-2
v -3.09538653 -5.1815417e-2 -6.0601792e-2
v -3.09918653 -5.1815417e-2 -5.8073792e-2
v -3.10368653 -5.1815417e-2 -5.7184792e-2
v -3.10808653 -5.1815417e-2 -5.8073792e-2
v -3.11188653 -5.1815417e-2 -6.0601792e-2
v -3.11438653 -5.1815417e-2 -6.4387792e-2
v -3.11528653 -5.1815417e-2 -6.8853792e-2
v -3.11438653 -5.1815417e-2 -7.3318792e-2
v -3.11188653 -5.1815417e-2 -7.7104792e-2
v -3.10808653 -5.1815417e-2 -7.9632792e-2
v -3.10368653 -5.1815417e-2 -8.0521792e-2
v -3.09918653 -5.1815417e-2 -7.9632792e-2
v -3.10988653 -4.1555417e-2 -7.0198792e-2
v -3.10518653 -4.4105417e-2 -8.3851792e-2
v -3.11288653 -4.0045417e-2 -8.3902792e-2
v -3.12038653 -3.6195417e-2 -8.3073792e-2
v -3.12168653 -3.5525417e-2 -7.7691792e-2
v -3.12268653 -3.5045417e-2 -7.3380792e-2
v -3.12218653 -3.5315417e-2 -6.7453792e-2
v -3.12158653 -3.5655417e-2 -6.2962792e-2
v -3.11438653 -3.9305417e-2 -6.0854792e-2
v -3.11078653 -4.1125417e-2 -5.8110792e-2
v -3.10698653 -4.3025417e-2 -5.2471792e-2
v -3.10038653 -4.6205417e-2 -5.1122792e-2
v -3.09478653 -4.9105417e-2 -5.4917792e-2
v -3.09148653 -5.0825417e-2 -6.1937792e-2
v -3.09108653 -5.1095417e-2 -6.8840792e-2
v -3.09378653 -4.9825417e-2 -7.6622792e-2
v -3.09848653 -4.7475417e-2 -8.2288792e-2
vt 0.0000000e+0 0.0000000e+0
vn 0.12350823 -0.86176608 -0.49204160
vn 0.26384520 -0.92850694 -0.26126724
vn 0.31152241 -0.95023881 -2.8301488e-5
vn 0.26381405 -0.92850323 0.26131186
vn 0.12355842 -0.86176820 0.49202530
vn -7.9808257e-2 -0.75742618 0.64802486
vn -0.31318038 -0.64149749 0.70028495
vn -0.56287966 -0.52013867 0.64235680
vn -0.76422424 -0.41721846 0.49182320
vn -0.89526223 -0.35488175 0.26937796
vn -0.94403591 -0.32984270 -2.7898569e-5
vn -0.89528594 -0.35485732 -0.26933133
vn -0.76419553 -0.41725438 -0.49183734
vn -0.56277698 -0.52017552 -0.64241692
vn -0.31318038 -0.64149749 -0.70028495
vn -7.9900560e-2 -0.75736561 -0.64808428
vn 0.76441817 0.41822843 -0.49066265
vn 0.90082967 0.34957236 -0.25749771
vn 0.94434447 0.32895823 -2.7463530e-5
vn 0.90080823 0.34959492 0.25754209
vn 0.76445025 0.41818896 0.49064632
vn 0.55380718 0.52241942 0.64836376
vn 0.31428468 0.64091718 0.70032157
vn 7.4919854e-2 0.75907396 0.64667900
vn -0.12672144 0.85882688 0.49634471
vn -0.26276181 0.92688414 0.26803363
vn -0.31185847 0.95012857 -2.8182916e-5
vn -0.26279514 0.92688791 -0.26798790
vn -0.12667270 0.85882456 -0.49636117
vn 7.5012824e-2 0.75901336 -0.64673936
vn 0.31428468 0.64091718 -0.70032157
vn 0.55370340 0.52245692 -0.64842217
vn -0.44545660 -0.89530354 1.5340082e-8
vn 0.44434465 0.89585592 -3.3170288e-7
vn 0.12603635 -0.86039274 -0.49380075
vn 0.26152315 -0.92614071 -0.27178858
vn 0.30991347 -0.95076477 4.5824931e-5
vn 0.26151217 -0.92613092 0.27183247
vn 0.12603541 -0.86039329 0.49380002
vn -8.1706629e-2 -0.75878631 0.64619452
vn -0.31791343 -0.63937536 0.70009299
vn -0.54795846 -0.52596311 0.65046471
vn -0.76811515 -0.42033481 0.48302977
vn -0.90198226 -0.34700545 0.25693427
vn -0.94390730 -0.33021055 4.8138662e-5
vn -0.90199666 -0.34700198 -0.25688839
vn -0.76811554 -0.42033377 -0.48303005
vn -0.54795845 -0.52596314 -0.65046469
vn -0.31791343 -0.63937536 -0.70009299
vn -8.1706022e-2 -0.75878600 -0.64619496
vn 0.75185007 0.42293189 -0.50581626
vn 0.89191612 0.35377788 -0.28165022
vn 0.94353618 0.33126949 4.9454428e-5
vn 0.89190054 0.35377949 0.28169753
vn 0.75185012 0.42293105 0.50581689
vn 0.55815831 0.51614362 0.64965765
vn 0.32509266 0.63578476 0.70006607
vn 7.3739709e-2 0.75883960 0.64708957
vn -0.13086694 0.86046665 0.49241343
vn -0.26481115 0.92685188 0.26612149
vn -0.30993383 0.95075813 4.4457643e-5
vn -0.26482031 0.92686181 -0.26607779
vn -0.13086564 0.86046700 -0.49241317
vn 7.3739568e-2 0.75883953 -0.64708967
vn 0.32509266 0.63578476 -0.70006607
vn 0.55815820 0.51614429 -0.64965722
vn -0.44352320 -0.89626289 -3.5518935e-7
vn 0.44339507 0.89632629 3.5466923e-7
vn 0.25485920 0.84776982 0.46511625
vn -0.63484223 0.31172477 0.70696747
vn -0.63389704 0.31125875 -0.70802015
vn 0.25615408 0.84732884 -0.46520847
vn 0.80872541 0.39647800 -0.43447487
vn 0.70049760 0.71364226 -4.2241060e-3
vn 0.80475164 0.41369987 0.42570790
vn 0.26673070 -0.12447081 0.95569961
vn 0.26600702 -0.13299503 -0.95475263
vn 0.71785166 0.47881519 0.50539590
vn 0.72165023 0.47043772 -0.50784771
vn 0.69247458 0.72144227 -2.6302325e-7
vn 0.72139339 0.68886964 -7.1064675e-2
vn 0.71628782 0.69481038 6.4577857e-2
vn 0.33401621 -0.49231830 -0.80377600
vn -2.7886257e-15 -0.49230459 -0.87042300
vn -0.33401621 -0.49231830 -0.80377600
vn -0.61495522 -0.49256057 -0.61580367
vn -0.80209427 -0.49410922 -0.33541149
vn -0.86891597 -0.49495963 2.9633569e-5
vn -0.80208419 -0.49410663 0.33543939
vn -0.61496569 -0.49259712 0.61576398
vn -0.33399206 -0.49240953 0.80373016
vn -2.7885854e-15 -0.49239070 0.87037428
vn 0.33399206 -0.49240953 0.80373016
vn 0.61496267 -0.49254085 0.61581201
vn 0.80210722 -0.49404014 0.33548227
vn 0.86892729 -0.49493975 1.6892299e-5
vn 0.80209427 -0.49410922 -0.33541149
vn 0.61495522 -0.49256057 -0.61580367
vn 0.68290563 -0.25517205 -0.68449041
vn 0.89182236 -0.25624724 -0.37281393
vn 0.96654265 -0.25650595 2.4893802e-5
vn 0.89181389 -0.25620714 0.37286176
vn 0.68293208 -0.25516097 0.68446815
vn 0.37145697 -0.25522758 0.89268057
vn -1.4450657e-15 -0.25516052 0.96689871
vn -0.37145697 -0.25522758 0.89268057
vn -0.68293961 -0.25519152 0.68444925
vn -0.89181061 -0.25624564 0.37284314
vn -0.96653979 -0.25651674 3.1497150e-5
vn -0.89182236 -0.25624724 -0.37281393
vn -0.68290563 -0.25517205 -0.68449041
vn -0.37147010 -0.25517432 -0.89269033
vn -1.4450799e-15 -0.25511472 -0.96691079
vn 0.37147010 -0.25517432 -0.89269033
vn 0.36370806 0.32245663 -0.87392114
vn 3.1337773e-4 0.32129512 -0.94697906
vn -0.36393068 0.31986529 -0.87478035
vn -0.66966808 0.31769752 -0.67127711
vn -0.87486868 0.32001288 -0.36358842
vn -0.94681867 0.32176761 3.0467598e-5
vn -0.87486477 0.31999907 0.36361000
vn -0.66971836 0.31766701 0.67124138
vn -0.36390902 0.31985638 0.87479262
vn 3.1315868e-4 0.32128553 0.94698232
vn 0.36368594 0.32244798 0.87393354
vn 0.66829829 0.32319653 0.67001597
vn 0.87261108 0.32513494 0.36446835
vn 0.94541776 0.32586081 3.1045584e-5
vn 0.87261527 0.32514852 -0.36444620
vn 0.66824812 0.32322621 -0.67005169
vn 0.66260915 0.34705284 -0.66370433
vn 0.86468751 0.34844959 -0.36179883
vn 0.93711812 0.34901236 3.5999369e-5
vn 0.86469215 0.34842264 0.36181370
vn 0.66264878 0.34701020 0.66368707
vn 0.36059062 0.34639664 0.86601604
vn 8.3669389e-4 0.34546160 0.93843251
vn -0.35891095 0.34413474 0.86761409
vn -0.66444824 0.34244828 0.66425727
vn -0.86862396 0.34425330 0.35634546
vn -0.93839823 0.34555573 3.4364174e-5
vn -0.86861881 0.34428013 -0.35633210
vn -0.66440858 0.34249175 -0.66427452
vn -0.35894770 0.34416877 -0.86758539
vn 8.3716328e-4 0.34549848 -0.93841894
vn 0.36062802 0.34643031 -0.86598699
vn 0.38302908 8.4638665e-2 -0.91985054
vn -1.5399831e-4 7.5908662e-2 -0.99711476
vn -0.38115768 5.9687510e-2 -0.92258128
vn -0.70751628 3.8211323e-2 -0.70566324
vn -0.92500914 1.4510299e-2 -0.37966767
vn -0.99997235 -7.4358009e-3 -1.0419546e-4
vn -0.92490765 -2.3772991e-2 0.37944786
vn -0.70766627 -3.2599910e-2 0.70579437
vn -0.38144491 -3.3048863e-2 0.92380060
vn 1.0098763e-4 -2.4402559e-2 0.99970221
vn 0.38454080 -7.9284276e-3 0.92307395
vn 0.70694388 1.3529931e-2 0.70714022
vn 0.92179482 3.6784164e-2 0.38592904
vn 0.99828220 5.8588560e-2 1.5919176e-4
vn 0.91986625 7.5396712e-2 -0.38491743
vn 0.70447732 8.4349507e-2 -0.70469630
vn 0.60486424 -0.19125517 -0.77302051
vn 0.88634920 -0.14763222 -0.43885057
vn 0.95176169 -0.30077419 -6.0700695e-2
vn 0.79578001 -0.49851712 0.34382387
vn 0.54020221 -0.51729704 0.66376603
vn 0.18345176 -0.45601632 0.87085852
vn -0.23127948 -0.32938404 0.91543212
vn -0.50609311 -0.18328680 0.84277856
vn -0.64427201 -0.14635862 0.75066153
vn -0.86918808 -0.21775062 0.44395579
vn -0.96970417 -0.24318141 2.3165132e-2
vn -0.92567780 -0.23911765 -0.29316097
vn -0.78208464 -0.25672209 -0.56783570
vn -0.47502002 -0.23088324 -0.84914599
vn -8.6690861e-2 -0.16619717 -0.98227450
vn 0.22534544 -0.19111762 -0.95534993
vn 0.45208581 0.89197118 -2.4158588e-3
vn 0.29806803 -2.8158139e-2 -0.95412922
vn 0.27901747 0.45049253 -0.84805998
vn -0.37797238 -6.0276818e-2 -0.92385258
vn -0.51121233 0.61788626 -0.59739311
vn -0.96037854 1.4802753e-2 -0.27830547
vn -0.68309616 0.72654894 7.4204256e-2
vn -0.72400633 0.18842387 0.66355955
vn -0.12007378 0.66501157 0.73711729
vn -0.16879736 0.65158163 0.73955989
vn -0.27813853 -7.7496146e-2 0.95740968
vn 0.51640341 0.20249240 0.83206030
vn 0.60388662 -0.54963389 0.57725517
vn 0.97697164 3.1353485e-2 0.21105302
vn 0.97974274 -0.16162963 -0.11823718
vn 0.87243990 0.36147830 -0.32891041
vn 0.71823823 0.34883344 -0.60203744
g g4_Stick_acmat_7
usemtl acmat_7
s 1
f 1/1/1 17/1/17 18/1/18 2/1/2
f 1/1/1 33/1/33 16/1/16
f 2/1/2 18/1/18 19/1/19 3/1/3
f 2/1/2 33/1/33 1/1/1
f 3/1/3 19/1/19 20/1/20 4/1/4
f 3/1/3 33/1/33 2/1/2
f 4/1/4 20/1/20 21/1/21 5/1/5
f 4/1/4 33/1/33 3/1/3
f 5/1/5 21/1/21 22/1/22 6/1/6
f 5/1/5 33/1/33 4/1/4
f 6/1/6 22/1/22 23/1/23 7/1/7
f 6/1/6 33/1/33 5/1/5
f 7/1/7 23/1/23 24/1/24 8/1/8
f 7/1/7 33/1/33 6/1/6
f 8/1/8 24/1/24 25/1/25 9/1/9
f 8/1/8 33/1/33 7/1/7
f 9/1/9 25/1/25 26/1/26 10/1/10
f 9/1/9 33/1/33 8/1/8
f 10/1/10 26/1/26 27/1/27 11/1/11
f 10/1/10 33/1/33 9/1/9
f 11/1/11 27/1/27 28/1/28 12/1/12
f 11/1/11 33/1/33 10/1/10
f 12/1/12 28/1/28 29/1/29 13/1/13
f 12/1/12 33/1/33 11/1/11
f 13/1/13 29/1/29 30/1/30 14/1/14
f 13/1/13 33/1/33 12/1/12
f 14/1/14 30/1/30 31/1/31 15/1/15
f 14/1/14 33/1/33 13/1/13
f 15/1/15 31/1/31 32/1/32 16/1/16
f 15/1/15 33/1/33 14/1/14
f 16/1/16 32/1/32 17/1/17 1/1/1
f 16/1/16 33/1/33 15/1/15
f 17/1/17 34/1/34 18/1/18
f 18/1/18 34/1/34 19/1/19
f 19/1/19 34/1/34 20/1/20
f 20/1/20 34/1/34 21/1/21
f 21/1/21 34/1/34 22/1/22
f 22/1/22 34/1/34 23/1/23
f 23/1/23 34/1/34 24/1/24
f 24/1/24 34/1/34 25/1/25
f 25/1/25 34/1/34 26/1/26
f 26/1/26 34/1/34 27/1/27
f 27/1/27 34/1/34 28/1/28
f 28/1/28 34/1/34 29/1/29
f 29/1/29 34/1/34 30/1/30
f 30/1/30 34/1/34 31/1/31
f 31/1/31 34/1/34 32/1/32
f 32/1/32 34/1/34 17/1/17
f 69/1/69 72/1/72 71/1/71 70/1/70
f 69/1/69 80/1/80 72/1/72
f 70/1/70 76/1/76 78/1/78 69/1/69
f 72/1/72 79/1/79 77/1/77 71/1/71
f 72/1/72 80/1/80 79/1/79
f 73/1/73 81/1/81 74/1/74
f 74/1/74 81/1/81 80/1/80
f 74/1/74 82/1/82 75/1/75
f 75/1/75 78/1/78 76/1/76
f 75/1/75 82/1/82 78/1/78
f 77/1/77 79/1/79 73/1/73
f 78/1/78 80/1/80 69/1/69
f 78/1/78 82/1/82 80/1/80
f 79/1/79 81/1/81 73/1/73
f 80/1/80 81/1/81 79/1/79
f 80/1/80 82/1/82 74/1/74
f 83/1/83 114/1/114 99/1/99 98/1/98
f 84/1/84 113/1/113 114/1/114 83/1/83
f 85/1/85 112/1/112 113/1/113 84/1/84
f 86/1/86 111/1/111 112/1/112 85/1/85
f 87/1/87 110/1/110 111/1/111 86/1/86
f 88/1/88 109/1/109 110/1/110 87/1/87
f 89/1/89 108/1/108 109/1/109 88/1/88
f 90/1/90 107/1/107 108/1/108 89/1/89
f 91/1/91 106/1/106 107/1/107 90/1/90
f 92/1/92 105/1/105 106/1/106 91/1/91
f 93/1/93 104/1/104 105/1/105 92/1/92
f 94/1/94 103/1/103 104/1/104 93/1/93
f 95/1/95 102/1/102 103/1/103 94/1/94
f 96/1/96 101/1/101 102/1/102 95/1/95
f 97/1/97 100/1/100 101/1/101 96/1/96
f 98/1/98 99/1/99 100/1/100 97/1/97
f 99/1/99 130/1/130 129/1/129 100/1/100
f 100/1/100 129/1/129 128/1/128 101/1/101
f 101/1/101 128/1/128 127/1/127 102/1/102
f 102/1/102 127/1/127 126/1/126 103/1/103
f 103/1/103 126/1/126 125/1/125 104/1/104
f 104/1/104 125/1/125 124/1/124 105/1/105
f 105/1/105 124/1/124 123/1/123 106/1/106
f 106/1/106 123/1/123 122/1/122 107/1/107
f 107/1/107 122/1/122 121/1/121 108/1/108
f 108/1/108 121/1/121 120/1/120 109/1/109
f 109/1/109 120/1/120 119/1/119 110/1/110
f 110/1/110 119/1/119 118/1/118 111/1/111
f 111/1/111 118/1/118 117/1/117 112/1/112
f 112/1/112 117/1/117 116/1/116 113/1/113
f 113/1/113 116/1/116 115/1/115 114/1/114
f 114/1/114 115/1/115 130/1/130 99/1/99
f 115/1/115 146/1/146 131/1/131 130/1/130
f 116/1/116 145/1/145 146/1/146 115/1/115
f 117/1/117 144/1/144 145/1/145 116/1/116
f 118/1/118 143/1/143 144/1/144 117/1/117
f 119/1/119 142/1/142 143/1/143 118/1/118
f 120/1/120 141/1/141 142/1/142 119/1/119
f 121/1/121 140/1/140 141/1/141 120/1/120
f 122/1/122 139/1/139 140/1/140 121/1/121
f 123/1/123 138/1/138 139/1/139 122/1/122
f 124/1/124 137/1/137 138/1/138 123/1/123
f 125/1/125 136/1/136 137/1/137 124/1/124
f 126/1/126 135/1/135 136/1/136 125/1/125
f 127/1/127 134/1/134 135/1/135 126/1/126
f 128/1/128 133/1/133 134/1/134 127/1/127
f 129/1/129 132/1/132 133/1/133 128/1/128
f 130/1/130 131/1/131 132/1/132 129/1/129
f 131/1/131 162/1/162 161/1/161 132/1/132
f 132/1/132 161/1/161 160/1/160 133/1/133
f 133/1/133 160/1/160 159/1/159 134/1/134
f 134/1/134 159/1/159 158/1/158 135/1/135
f 135/1/135 158/1/158 157/1/157 136/1/136
f 136/1/136 157/1/157 156/1/156 137/1/137
f 137/1/137 156/1/156 155/1/155 138/1/138
f 138/1/138 155/1/155 154/1/154 139/1/139
f 139/1/139 154/1/154 153/1/153 140/1/140
f 140/1/140 153/1/153 152/1/152 141/1/141
f 141/1/141 152/1/152 151/1/151 142/1/142
f 142/1/142 151/1/151 150/1/150 143/1/143
f 143/1/143 150/1/150 149/1/149 144/1/144
f 144/1/144 149/1/149 148/1/148 145/1/145
f 145/1/145 148/1/148 147/1/147 146/1/146
f 146/1/146 147/1/147 162/1/162 131/1/131
f 147/1/147 178/1/178 163/1/163 162/1/162
f 148/1/148 177/1/177 178/1/178 147/1/147
f 149/1/149 176/1/176 177/1/177 148/1/148
f 150/1/150 175/1/175 176/1/176 149/1/149
f 151/1/151 174/1/174 175/1/175 150/1/150
f 152/1/152 173/1/173 174/1/174 151/1/151
f 153/1/153 172/1/172 173/1/173 152/1/152
f 154/1/154 171/1/171 172/1/172 153/1/153
f 155/1/155 170/1/170 171/1/171 154/1/154
f 156/1/156 169/1/169 170/1/170 155/1/155
f 157/1/157 168/1/168 169/1/169 156/1/156
f 158/1/158 167/1/167 168/1/168 157/1/157
f 159/1/159 166/1/166 167/1/167 158/1/158
f 160/1/160 165/1/165 166/1/166 159/1/159
f 161/1/161 164/1/164 165/1/165 160/1/160
f 162/1/162 163/1/163 164/1/164 161/1/161
f 163/1/163 195/1/195 194/1/194 164/1/164
f 164/1/164 194/1/194 193/1/193 165/1/165
f 165/1/165 193/1/193 192/1/192 166/1/166
f 166/1/166 192/1/192 191/1/191 167/1/167
f 167/1/167 191/1/191 190/1/190 168/1/168
f 168/1/168 190/1/190 189/1/189 169/1/169
f 169/1/169 189/1/189 188/1/188 170/1/170
f 170/1/170 188/1/188 187/1/187 171/1/171
f 171/1/171 187/1/187 186/1/186 172/1/172
f 172/1/172 186/1/186 185/1/185 173/1/173
f 173/1/173 185/1/185 184/1/184 174/1/174
f 174/1/174 184/1/184 183/1/183 175/1/175
f 175/1/175 183/1/183 182/1/182 176/1/176
f 176/1/176 182/1/182 181/1/181 177/1/177
f 177/1/177 181/1/181 180/1/180 178/1/178
f 178/1/178 180/1/180 195/1/195 163/1/163
f 179/1/179 195/1/195 180/1/180 181/1/181
f 181/1/181 182/1/182 183/1/183 179/1/179
f 183/1/183 184/1/184 185/1/185 179/1/179
f 185/1/185 186/1/186 187/1/187 179/1/179
f 187/1/187 188/1/188 179/1/179
f 188/1/188 189/1/189 190/1/190 179/1/179
f 190/1/190 191/1/191 192/1/192 179/1/179
f 192/1/192 193/1/193 194/1/194 179/1/179
f 194/1/194 195/1/195 179/1/179
