# Exported from Wings 3D 1.4.1
mtllib harrier_g3_VectorLevel.mtl
o g3_VectorLever
#97 vertices, 96 faces
v -2.93818653 -0.22054542 0.20947521
v -2.93738653 -0.22041542 0.21111821
v -2.93698653 -0.22022542 0.21306021
v -2.93718653 -0.22000542 0.21500621
v -2.93818653 -0.21980542 0.21665721
v -2.93968653 -0.21965542 0.21776321
v -2.94138653 -0.21954542 0.21815821
v -2.94308653 -0.21952542 0.21777921
v -2.94448653 -0.21958542 0.21668521
v -2.94548653 -0.21972542 0.21504121
v -2.94588653 -0.21991542 0.21310021
v -2.94558653 -0.22012542 0.21115521
v -2.94458653 -0.22032542 0.20950321
v -2.94318653 -0.22049542 0.20839521
v -2.94148653 -0.22058542 0.20800221
v -2.93968653 -0.22061542 0.20838021
v -2.93618653 -0.21656542 0.21049221
v -2.93738653 -0.21671542 0.20866221
v -2.93568653 -0.21636542 0.21265521
v -2.93608653 -0.21612542 0.21482221
v -2.93728653 -0.21589542 0.21666421
v -2.93918653 -0.21570542 0.21789921
v -2.94128653 -0.21559542 0.21833921
v -2.94338653 -0.21555542 0.21791821
v -2.94518653 -0.21562542 0.21669821
v -2.94638653 -0.21577542 0.21486821
v -2.94688653 -0.21597542 0.21270421
v -2.94638653 -0.21621542 0.21053721
v -2.94528653 -0.21644542 0.20869721
v -2.94348653 -0.21663542 0.20746121
v -2.94128653 -0.21674542 0.20702221
v -2.93918653 -0.21678542 0.20744321
v -2.93608653 -0.17736542 0.20462321
v -2.93488653 -0.17721542 0.20645421
v -2.93438653 -0.17701542 0.20861721
v -2.93478653 -0.17677542 0.21078321
v -2.93598653 -0.17654542 0.21262521
v -2.93778653 -0.17635542 0.21386021
v -2.93988653 -0.17622542 0.21430121
v -2.94198653 -0.17620542 0.21387921
v -2.94388653 -0.17625542 0.21266121
v -2.94498653 -0.17640542 0.21083021
v -2.94548653 -0.17661542 0.20866721
v -2.94498653 -0.17685542 0.20650121
v -2.94388653 -0.17709542 0.20465821
v -2.94208653 -0.17727542 0.20342421
v -2.93998653 -0.17739542 0.20298321
v -2.93788653 -0.17741542 0.20340521
v -2.93378653 -0.17415542 0.20206321
v -2.93188653 -0.17392542 0.20489521
v -2.93128653 -0.17360542 0.20824421
v -2.93188653 -0.17324542 0.21159921
v -2.93368653 -0.17287542 0.21444821
v -2.93638653 -0.17258542 0.21635921
v -2.93978653 -0.17240542 0.21704021
v -2.94298653 -0.17236542 0.21638921
v -2.94588653 -0.17245542 0.21450321
v -2.94778653 -0.17269542 0.21166921
v -2.94838653 -0.17300542 0.20832221
v -2.94778653 -0.17338542 0.20496621
v -2.94588653 -0.17373542 0.20211621
v -2.94318653 -0.17402542 0.20020521
v -2.93988653 -0.17420542 0.19952421
v -2.93658653 -0.17424542 0.20017521
v -2.93978653 -0.17331542 0.20828021
v -2.93588653 -0.21998542 0.20669121
v -2.93418653 -0.21974542 0.20956021
v -2.93358653 -0.21941542 0.21295121
v -2.93408653 -0.21904542 0.21634721
v -2.93578653 -0.21869542 0.21923121
v -2.93828653 -0.21841542 0.22116421
v -2.94138653 -0.21824542 0.22185221
v -2.94438653 -0.21820542 0.22119021
v -2.94688653 -0.21831542 0.21927921
v -2.94858653 -0.21854542 0.21641121
v -2.94918653 -0.21887542 0.21302121
v -2.94858653 -0.21925542 0.20962421
v -2.94698653 -0.21959542 0.20674221
v -2.94438653 -0.21988542 0.20480821
v -2.94148653 -0.22005542 0.20411921
v -2.93848653 -0.22009542 0.20478121
v -2.93418653 -0.21801542 0.20938221
v -2.93578653 -0.21825542 0.20651421
v -2.93348653 -0.21768542 0.21277321
v -2.93398653 -0.21731542 0.21617021
v -2.93578653 -0.21697542 0.21905321
v -2.93818653 -0.21667542 0.22098721
v -2.94128653 -0.21650542 0.22167421
v -2.94428653 -0.21646542 0.22101321
v -2.94678653 -0.21657542 0.21910221
v -2.94858653 -0.21681542 0.21623421
v -2.94918653 -0.21714542 0.21284321
v -2.94858653 -0.21751542 0.20944721
v -2.94698653 -0.21786542 0.20656421
v -2.94438653 -0.21815542 0.20463121
v -2.94138653 -0.21831542 0.20394221
v -2.93838653 -0.21835542 0.20460321
vt 0.0000000e+0 0.0000000e+0
vt 0.0000000e+0 1.00000000
vt 1.00000000 0.0000000e+0
vt 1.00000000 1.00000000
vn 0.15769076 -0.98531340 -6.5506622e-2
vn 0.21395129 -0.97677725 1.1447738e-2
vn 0.23363928 -0.96773015 9.4398276e-2
vn 0.21537007 -0.95895450 0.18445056
vn 0.15840005 -0.95158996 0.26341217
vn 7.1349073e-2 -0.94651377 0.31467602
vn -3.2569607e-2 -0.94248606 0.33265484
vn -0.13473204 -0.94057125 0.31172584
vn -0.21897954 -0.94030112 0.26054129
vn -0.27582654 -0.94253634 0.18853374
vn -0.30020169 -0.94850397 0.10108987
vn -0.28113228 -0.95961428 1.0251091e-2
vn -0.22392516 -0.97232024 -6.6714910e-2
vn -0.13818376 -0.98332845 -0.11819645
vn -3.6411376e-2 -0.98994238 -0.13670517
vn 6.6823756e-2 -0.99057203 -0.11958944
vn 0.80649036 0.45744819 -0.37458570
vn 0.62393319 0.46124732 -0.63083935
vn 0.87432479 0.48020118 -7.0448451e-2
vn 0.81110828 0.52576850 0.25626322
vn 0.62443854 0.57884608 0.52441752
vn 0.35027477 0.62513975 0.69750117
vn 2.5292672e-2 0.64987105 0.75962353
vn -0.30184149 0.64715892 0.70005503
vn -0.58601046 0.62200339 0.51932988
vn -0.77019714 0.58111243 0.26287776
vn -0.83663765 0.54491249 -5.5747789e-2
vn -0.77618414 0.51529714 -0.36332773
vn -0.59910278 0.50611843 -0.62041921
vn -0.31362243 0.49226005 -0.81198585
vn 1.4577257e-2 0.48165119 -0.87624177
vn 0.34331425 0.47040183 -0.81293139
vn 0.65227955 -0.44268233 -0.61527534
vn 0.85076786 -0.41577776 -0.32143880
vn 0.92509554 -0.37901917 2.3296226e-2
vn 0.85994801 -0.34004259 0.38060537
vn 0.65958382 -0.30688667 0.68612664
vn 0.35624576 -0.27809692 0.89204880
vn -6.1566509e-3 -0.25854150 0.96598053
vn -0.36539209 -0.25163750 0.89619595
vn -0.67714640 -0.26395788 0.68687626
vn -0.87704240 -0.28609818 0.38593323
vn -0.94655453 -0.32080753 3.3422317e-2
vn -0.88088811 -0.35551895 -0.31247786
vn -0.69286334 -0.39406485 -0.60386529
vn -0.38316778 -0.42755494 -0.81876689
vn -1.7467727e-2 -0.44902847 -0.89334669
vn 0.34674399 -0.45364898 -0.82095750
vn 0.65717797 0.33304043 -0.67616654
vn 0.85115447 0.35888664 -0.38306193
vn 0.91745305 0.39502898 -4.7244042e-2
vn 0.85622337 0.43136705 0.28426047
vn 0.67132294 0.46418529 0.57780406
vn 0.37400166 0.49404474 0.78488379
vn 1.6812083e-2 0.51294610 0.85825617
vn -0.32632712 0.51794218 0.79072531
vn -0.62730811 0.50922453 0.58921551
vn -0.82603831 0.48244952 0.29138149
vn -0.89078023 0.45209604 -4.6040660e-2
vn -0.82647606 0.41456061 -0.38088951
vn -0.64161224 0.38023829 -0.66614756
vn -0.34807479 0.34865832 -0.87021912
vn 6.8961366e-3 0.32796835 -0.94466354
vn 0.36167833 0.32298493 -0.87456819
vn 3.3825745e-2 0.99416323 -0.10244655
vn 0.56566362 -0.68877028 -0.45345360
vn 0.72304109 -0.65891812 -0.20745722
vn 0.76851087 -0.63796687 4.8880691e-2
vn 0.72049478 -0.61110713 0.32777333
vn 0.57283754 -0.57774005 0.58144096
vn 0.31694244 -0.56013362 0.76537430
vn -1.8492108e-2 -0.54267960 0.83973620
vn -0.35156843 -0.53387147 0.76901293
vn -0.60730122 -0.53968404 0.58303205
vn -0.75417876 -0.56434031 0.33575947
vn -0.80322089 -0.59230945 6.3290734e-2
vn -0.75839417 -0.62105434 -0.19781249
vn -0.60883474 -0.65611522 -0.44590702
vn -0.35397543 -0.68294717 -0.63897149
vn -2.9444226e-2 -0.70168215 -0.71188145
vn 0.29980247 -0.70541311 -0.64227006
vn 0.81609455 0.46092877 -0.34861778
vn 0.64416107 0.46086153 -0.61046145
vn 0.87777858 0.47400999 -6.9421157e-2
vn 0.82037189 0.51935075 0.23930057
vn 0.64650002 0.57580875 0.50048178
vn 0.37452644 0.62459117 0.68528520
vn 2.2994485e-2 0.65054205 0.75912206
vn -0.32463298 0.65155973 0.68562624
vn -0.60264659 0.62089966 0.50129902
vn -0.78171595 0.57228693 0.24780605
vn -0.84778377 0.52758549 -5.4002072e-2
vn -0.79288904 0.50421142 -0.34219559
vn -0.61856391 0.49661907 -0.60889094
vn -0.33284541 0.48919898 -0.80616270
vn 1.1987020e-2 0.48207886 -0.87604582
vn 0.35993088 0.46698069 -0.80769969
g g3_VectorLever_acmat_7
usemtl acmat_7
s 1
f 1/4/1 66/3/66 67/1/67 2/2/2
f 2/1/2 67/3/67 68/4/68 3/2/3
f 3/1/3 68/3/68 69/4/69 4/2/4
f 4/1/4 69/3/69 70/4/70 5/2/5
f 5/1/5 70/3/70 71/4/71 6/2/6
f 6/4/6 71/3/71 72/1/72 7/2/7
f 7/1/7 72/3/72 73/4/73 8/2/8
f 8/1/8 73/3/73 74/4/74 9/2/9
f 9/1/9 74/3/74 75/4/75 10/2/10
f 10/1/10 75/3/75 76/4/76 11/2/11
f 11/1/11 76/3/76 77/4/77 12/2/12
f 12/1/12 77/3/77 78/4/78 13/2/13
f 13/1/13 78/3/78 79/4/79 14/2/14
f 14/1/14 79/3/79 80/4/80 15/2/15
f 15/1/15 80/3/80 81/4/81 16/2/16
f 16/4/16 81/3/81 66/1/66 1/2/1
f 17/1/17 34/3/34 35/4/35 19/2/19
f 17/2/17 82/1/82 83/3/83 18/4/18
f 18/2/18 33/4/33 34/3/34 17/1/17
f 18/2/18 83/1/83 97/3/97 32/4/32
f 19/1/19 35/3/35 36/4/36 20/2/20
f 19/4/19 84/3/84 82/1/82 17/2/17
f 20/1/20 36/3/36 37/4/37 21/2/21
f 20/4/20 85/3/85 84/1/84 19/2/19
f 21/1/21 37/3/37 38/4/38 22/2/22
f 21/1/21 86/3/86 85/4/85 20/2/20
f 22/2/22 38/4/38 39/3/39 23/1/23
f 22/4/22 87/3/87 86/1/86 21/2/21
f 23/1/23 39/3/39 40/4/40 24/2/24
f 23/4/23 88/3/88 87/1/87 22/2/22
f 24/1/24 40/3/40 41/4/41 25/2/25
f 24/4/24 89/3/89 88/1/88 23/2/23
f 25/1/25 41/3/41 42/4/42 26/2/26
f 25/4/25 90/3/90 89/1/89 24/2/24
f 26/1/26 42/3/42 43/4/43 27/2/27
f 26/4/26 91/3/91 90/1/90 25/2/25
f 27/1/27 43/3/43 44/4/44 28/2/28
f 27/4/27 92/3/92 91/1/91 26/2/26
f 28/1/28 44/3/44 45/4/45 29/2/29
f 28/4/28 93/3/93 92/1/92 27/2/27
f 29/1/29 45/3/45 46/4/46 30/2/30
f 29/4/29 94/3/94 93/1/93 28/2/28
f 30/1/30 46/3/46 47/4/47 31/2/31
f 30/4/30 95/3/95 94/1/94 29/2/29
f 31/1/31 47/3/47 48/4/48 32/2/32
f 31/4/31 96/3/96 95/1/95 30/2/30
f 32/2/32 48/4/48 33/3/33 18/1/18
f 32/4/32 97/3/97 96/1/96 31/2/31
f 33/2/33 49/4/49 50/3/50 34/1/34
f 34/1/34 50/3/50 51/4/51 35/2/35
f 35/1/35 51/3/51 52/4/52 36/2/36
f 36/1/36 52/3/52 53/4/53 37/2/37
f 37/1/37 53/3/53 54/4/54 38/2/38
f 38/2/38 54/4/54 55/3/55 39/1/39
f 39/1/39 55/3/55 56/4/56 40/2/40
f 40/1/40 56/3/56 57/4/57 41/2/41
f 41/1/41 57/3/57 58/4/58 42/2/42
f 42/1/42 58/3/58 59/4/59 43/2/43
f 43/1/43 59/3/59 60/4/60 44/2/44
f 44/1/44 60/3/60 61/4/61 45/2/45
f 45/1/45 61/3/61 62/4/62 46/2/46
f 46/1/46 62/3/62 63/4/63 47/2/47
f 47/1/47 63/3/63 64/4/64 48/2/48
f 48/2/48 64/4/64 49/3/49 33/1/33
f 49/2/49 65/3/65 50/1/50
f 50/2/50 65/3/65 51/1/51
f 51/2/51 65/3/65 52/1/52
f 52/2/52 65/3/65 53/1/53
f 53/2/53 65/3/65 54/1/54
f 54/2/54 65/3/65 55/1/55
f 55/2/55 65/3/65 56/1/56
f 56/2/56 65/3/65 57/1/57
f 57/2/57 65/3/65 58/1/58
f 58/2/58 65/3/65 59/1/59
f 59/2/59 65/1/65 60/3/60
f 60/2/60 65/1/65 61/3/61
f 61/2/61 65/1/65 62/3/62
f 62/2/62 65/1/65 63/3/63
f 63/2/63 65/1/65 64/3/64
f 64/1/64 65/3/65 49/2/49
f 66/4/66 83/3/83 82/1/82 67/2/67
f 67/1/67 82/3/82 84/4/84 68/2/68
f 68/1/68 84/3/84 85/4/85 69/2/69
f 69/1/69 85/3/85 86/4/86 70/2/70
f 70/1/70 86/3/86 87/4/87 71/2/71
f 71/4/71 87/3/87 88/1/88 72/2/72
f 72/1/72 88/3/88 89/4/89 73/2/73
f 73/1/73 89/3/89 90/4/90 74/2/74
f 74/1/74 90/3/90 91/4/91 75/2/75
f 75/1/75 91/3/91 92/4/92 76/2/76
f 76/1/76 92/3/92 93/4/93 77/2/77
f 77/1/77 93/3/93 94/4/94 78/2/78
f 78/1/78 94/3/94 95/4/95 79/2/79
f 79/1/79 95/3/95 96/4/96 80/2/80
f 80/1/80 96/3/96 97/4/97 81/2/81
f 81/4/81 97/3/97 83/1/83 66/2/66
